HIERARCHY
ROOT Hips
{
	OFFSET 0.00000 0.00000 0.00000
	CHANNELS 6 Xposition Yposition Zposition Zrotation Yrotation Xrotation 
	JOINT LHipJoint
	{
		OFFSET 0 0 0
		CHANNELS 3 Zrotation Yrotation Xrotation
		JOINT LeftHip
		{
			OFFSET 1.26600 -1.82114 0.91038
			CHANNELS 3 Zrotation Yrotation Xrotation
			JOINT LeftKnee
			{
				OFFSET 2.50076 -6.87080 0.00000
				CHANNELS 3 Zrotation Yrotation Xrotation
				JOINT LeftAnkle
				{
					OFFSET 2.57364 -7.07102 0.00000
					CHANNELS 3 Zrotation Yrotation Xrotation
					JOINT LeftToe
					{
						OFFSET 0.13572 -0.37290 1.97004
						CHANNELS 3 Zrotation Yrotation Xrotation
						End Site
						{
							OFFSET 0.00000 -0.00000 1.01383
						}
					}
				}
			}
		}
	}
	JOINT RHipJoint
	{
		OFFSET 0 0 0
		CHANNELS 3 Zrotation Yrotation Xrotation
		JOINT RightHip
		{
			OFFSET -1.20803 -1.82114 0.91038
			CHANNELS 3 Zrotation Yrotation Xrotation
			JOINT RightKnee
			{
				OFFSET -2.54916 -7.00377 0.00000
				CHANNELS 3 Zrotation Yrotation Xrotation
				JOINT RightAnkle
				{
					OFFSET -2.56374 -7.04382 0.00000
					CHANNELS 3 Zrotation Yrotation Xrotation
					JOINT RightToe
					{
						OFFSET -0.23520 -0.64621 2.09921
						CHANNELS 3 Zrotation Yrotation Xrotation
						End Site
						{
							OFFSET -0.00000 -0.00000 1.10065
						}
					}
				}
			}
		}
	}
	JOINT lowerback
	{
		OFFSET 0 0 0
		CHANNELS 3 Zrotation Yrotation Xrotation
		JOINT Chest
		{
			OFFSET 0.05492 2.10797 -0.12074
			CHANNELS 3 Zrotation Yrotation Xrotation
			JOINT Chest2
			{
				OFFSET 0.04577 2.11592 -0.04483
				CHANNELS 3 Zrotation Yrotation Xrotation
				JOINT lowerneck
				{
					OFFSET 0 0 0
					CHANNELS 3 Zrotation Yrotation Xrotation
					JOINT Neck
					{
						OFFSET -0.10759 1.80167 0.15770
						CHANNELS 3 Zrotation Yrotation Xrotation
						JOINT Head
						{
							OFFSET 0.09237 1.77509 -0.40848
							CHANNELS 3 Zrotation Yrotation Xrotation
							End Site
							{
								OFFSET 0.03805 1.84093 -0.15754
							}
						}
					}
				}
				JOINT LeftCollar
				{
					OFFSET 0 0 0
					CHANNELS 3 Zrotation Yrotation Xrotation
					JOINT LeftShoulder
					{
						OFFSET 3.42372 1.09575 -0.28209
CHANNELS 3 Zrotation Xrotation Yrotation
						JOINT LeftElbow
						{
OFFSET 0 -4.956810 0.000000
CHANNELS 3 Zrotation Xrotation Yrotation
							JOINT LeftWrist
							{
OFFSET 0 -3.409150 0.000000
CHANNELS 3 Zrotation Xrotation Yrotation
								JOINT lhand
								{
									OFFSET 0 0 0
CHANNELS 3 Zrotation Xrotation Yrotation
									JOINT LFingers
									{
OFFSET 0 -0.616400 0.000000
CHANNELS 3 Zrotation Xrotation Yrotation
										End Site
										{
OFFSET 0 -0.496960 0.000000
										}
									}
								}
								JOINT LThumb
								{
OFFSET 0 0.000000 0.000000
CHANNELS 3 Zrotation Xrotation Yrotation
									End Site
									{
OFFSET 0 -0.504550 0.504550
									}
								}
							}
						}
					}
				}
				JOINT RightCollar
				{
					OFFSET 0 0 0
					CHANNELS 3 Zrotation Yrotation Xrotation
					JOINT RightShoulder
					{
						OFFSET -3.24731 1.15872 -0.32221
CHANNELS 3 Zrotation Xrotation Yrotation
						JOINT RightElbow
						{
OFFSET 0 -5.352000 0.000000
CHANNELS 3 Zrotation Xrotation Yrotation
							JOINT RightWrist
							{
OFFSET 0 -3.437210 -0.000000
CHANNELS 3 Zrotation Xrotation Yrotation
								JOINT rhand
								{
									OFFSET 0 0 0
CHANNELS 3 Zrotation Xrotation Yrotation
									JOINT RFingers
									{
OFFSET 0 -0.720090 0.000000
CHANNELS 3 Zrotation Xrotation Yrotation
										End Site
										{
OFFSET 0 -0.580560 0.000000
										}
									}
								}
								JOINT RThumb
								{
OFFSET 0 0.000000 0.000000
CHANNELS 3 Zrotation Xrotation Yrotation
									End Site
									{
OFFSET 0 -0.589420 0.589420
									}
								}
							}
						}
					}
				}
			}
		}
	}
}
MOTION
Frames: 12
Frame Time: 0.008333333333333333
-13.602800 17.177300 8.137600 -4.329300 -3.630000 2.455200 0.000000 0.000000 0.000000 -14.085500 -0.450700 -12.716700 3.986200 12.142000 36.236200 1.683900 2.525100 -25.534400 0.322800 -3.652100 -10.100000 0.000000 0.000000 0.000000 26.344800 -1.890600 -16.776200 -4.365700 -12.631800 38.005300 -1.630000 8.839800 -22.873600 -0.822000 -5.784700 16.160900 1.928400 -2.871900 1.928900 3.386600 -3.735400 -0.503700 2.515400 -1.871500 -1.494300 -16.027000 -12.210900 -5.629300 8.022400 -16.548600 19.586500 3.440000 -8.363200 9.095800 0.000000 -0.000000 0.000000 -0.753600 3.436000 -12.223000 15.022700 -24.177700 3.235200 18.776000 6.429600 -18.319100 0.000000 0.000000 0.000000 -7.125000 0.000000 0.000000 -9.142700 49.036600 0.917100 0.000000 -0.000000 0.000000 -3.683200 3.399800 18.504900 -14.006000 -22.743300 -2.830400 -21.513200 -11.687400 -14.441300 0.000000 0.000000 0.000000 7.125000 0.000000 -0.000000 4.063000 14.534600 2.920800
-13.671058 17.172452 8.219612 -4.465856 -3.531474 3.141421 0.000000 0.000000 0.000000 -13.645159 -0.519495 -13.223050 4.001502 12.162469 36.309134 1.734980 2.281126 -25.796647 0.304517 -3.545877 -9.802614 0.000000 0.000000 0.000000 26.717494 -1.895262 -17.271695 -4.369010 -12.635974 38.020531 -1.693292 9.266437 -23.330554 -0.972594 -6.278320 17.594116 1.978561 -2.624647 1.493101 3.615771 -3.413071 -0.683076 2.696334 -1.710081 -1.432516 -14.036636 -9.644868 -8.881008 5.488318 -12.521285 25.310072 2.669162 -6.536541 10.893632 0.000000 0.000000 0.000000 -0.910620 3.222185 -11.740313 14.677203 -23.694455 3.095034 19.012767 6.004985 -18.416695 0.000000 0.000000 0.000000 -7.125000 0.000000 0.000000 -8.945930 49.172508 0.927936 0.000000 0.000000 0.000000 -3.893374 3.000147 17.884591 -13.982032 -22.709087 -2.821157 -21.736605 -12.286440 -15.109490 0.000000 0.000000 0.000000 7.125000 0.000000 0.000000 3.946607 13.800464 2.898335
-13.779168 17.145964 8.316253 -4.940842 -3.710148 3.121743 0.000000 0.000000 0.000000 -12.569876 0.472795 -13.365310 4.186903 12.404918 37.180035 1.725458 2.069388 -25.639570 0.655582 -5.178372 -14.418183 0.000000 0.000000 0.000000 27.693236 -1.497681 -16.565000 -4.351737 -12.614307 37.941321 -1.802064 9.030708 -24.067645 -0.994236 -6.345762 17.790966 2.289876 -2.142325 1.256751 3.859935 -2.784816 -0.382240 2.738894 -1.397580 -1.013449 -11.971321 -6.210851 -12.523237 4.245612 -7.463419 32.096036 2.567219 -4.225166 13.596722 0.000000 0.000000 0.000000 -0.804780 2.551689 -11.702883 14.235411 -23.070244 2.919762 19.882852 5.247455 -16.619861 0.000000 0.000000 0.000000 -7.125000 0.000000 0.000000 -7.619958 47.443880 0.461885 0.000000 0.000000 0.000000 -3.586993 2.446786 17.149675 -14.299646 -23.161352 -2.944936 -22.120946 -12.409410 -13.163491 0.000000 0.000000 0.000000 7.125000 0.000000 0.000000 3.586042 15.829523 2.476577
-13.892573 17.141395 8.407747 -5.562942 -3.485646 2.164306 0.000000 0.000000 0.000000 -11.259502 -0.344716 -13.511272 4.926270 13.299330 40.501256 1.677030 1.069095 -24.894112 0.316861 -3.587788 -9.922973 0.000000 0.000000 0.000000 28.864035 -1.908249 -14.484839 -4.093667 -12.283790 36.743829 -1.812637 8.477053 -24.133530 -0.905631 -6.064361 16.971246 3.292983 -1.775429 2.043358 3.871612 -2.285760 0.706348 2.184009 -1.145764 -0.389936 -9.582539 -3.130291 -14.568413 3.209348 -3.013513 36.087271 2.518091 -2.194979 15.307371 0.000000 0.000000 0.000000 -0.200663 1.643504 -12.305554 14.874727 -23.971315 3.174909 19.047208 5.306805 -18.027093 0.000000 0.000000 0.000000 -7.125000 0.000000 0.000000 -8.797064 48.777552 0.825400 0.000000 0.000000 0.000000 -2.810125 1.431362 17.698628 -15.118830 -24.310668 -3.275116 -22.300447 -12.828950 -12.246393 0.000000 0.000000 0.000000 7.125000 0.000000 0.000000 3.421095 16.791804 2.290827
-14.001299 17.108272 8.478093 -7.571098 -2.541104 1.025548 0.000000 0.000000 0.000000 -7.562472 -0.650403 -17.606245 7.237719 15.527090 49.764867 1.113780 -0.634395 -19.746056 0.620304 -5.039870 -14.022383 0.000000 0.000000 0.000000 31.498681 -3.651481 -12.141325 -3.627954 -11.647967 34.497925 -1.770358 8.444203 -23.845008 -0.956367 -6.227393 17.445553 5.970456 -1.382383 3.466667 4.192312 -1.666534 2.055021 1.027787 -0.807714 0.131682 -8.363183 -1.347287 -14.578508 2.743863 -0.477655 36.891453 2.563294 -1.022650 15.454701 0.000000 0.000000 0.000000 0.202280 0.647343 -13.209122 16.085639 -25.636439 3.683019 18.223764 4.871371 -19.398092 0.000000 0.000000 0.000000 -7.125000 0.000000 0.000000 -10.013746 50.054118 1.258212 0.000000 0.000000 0.000000 -2.273254 1.069086 19.118961 -16.148012 -25.720846 -3.709999 -21.349421 -14.358195 -13.782974 0.000000 0.000000 0.000000 7.125000 0.000000 0.000000 4.143979 15.250641 2.915714
-14.063749 17.116405 8.593762 -9.815199 -1.898236 0.178276 0.000000 0.000000 0.000000 -3.311734 -2.037692 -24.083690 10.515662 17.689449 61.197921 0.363707 -2.108561 -10.857128 0.005333 -0.457625 -1.257653 0.000000 0.000000 0.000000 34.069612 -5.837627 -10.082620 -3.088103 -10.836259 31.729737 -1.603901 8.326405 -22.676897 -1.056181 -6.534445 18.343373 9.171386 -0.869326 4.953294 4.623019 -0.785035 3.065219 -0.307839 -0.313368 0.354020 -8.241751 -0.980688 -14.291636 2.616798 0.102869 36.791561 2.585049 -0.758403 15.291673 0.000000 0.000000 0.000000 0.020426 0.010438 -13.832726 17.064337 -26.942513 4.116458 18.691253 4.097564 -17.852381 0.000000 0.000000 0.000000 -7.125000 0.000000 0.000000 -9.085477 48.544873 0.801116 0.000000 0.000000 0.000000 -2.636457 1.363142 21.618560 -17.042543 -26.913828 -4.106568 -20.692277 -14.488474 -13.137354 0.000000 0.000000 0.000000 7.125000 0.000000 0.000000 4.570347 15.999925 3.142080
-14.108915 17.140193 8.820512 -9.773204 -2.673196 -0.496249 0.000000 0.000000 0.000000 -2.390026 -1.551863 -29.105998 11.653060 18.240064 64.884725 0.289785 -6.397573 -9.923044 0.110268 -2.131056 -5.868356 0.000000 0.000000 0.000000 34.157659 -5.824099 -7.631365 -2.860919 -10.466429 30.500891 -1.649541 7.903609 -23.001683 -1.134205 -6.763777 19.017415 9.509217 0.126759 6.034669 4.640231 0.621568 3.857068 -0.539908 0.421055 0.688577 -8.469359 -0.783229 -13.883324 2.651830 0.467745 37.498868 2.720657 -0.638898 15.518722 0.000000 0.000000 0.000000 -0.688315 0.547197 -14.440465 18.026768 -28.191333 4.561901 17.802701 3.095748 -19.155515 0.000000 0.000000 0.000000 -7.125000 0.000000 0.000000 -10.339501 49.741122 1.220149 0.000000 0.000000 0.000000 -3.514937 0.942718 22.421508 -15.756994 -25.189836 -3.541926 -21.361098 -12.716534 -14.828443 0.000000 0.000000 0.000000 7.125000 0.000000 0.000000 4.186165 14.140756 3.044089
-14.112856 17.144900 9.152269 -9.058350 -2.351853 -0.279641 0.000000 0.000000 0.000000 -3.362447 -1.604892 -33.018264 10.097513 17.463591 59.812798 0.303599 -7.742871 -10.472470 0.065701 -1.653508 -4.549053 0.000000 0.000000 0.000000 33.227305 -6.784938 -6.324084 -2.678658 -10.155746 29.482550 -1.669300 8.031066 -23.141622 -0.892188 -6.015924 16.832066 9.567290 0.557199 6.188043 4.240075 1.219749 3.822668 -1.019903 0.721972 0.624567 -8.268674 -0.333856 -13.402797 2.634566 1.086655 38.176211 2.797274 -0.362793 15.693029 0.000000 0.000000 0.000000 -1.131116 1.944938 -12.617816 17.326537 -27.286219 4.235999 18.531533 2.939982 -17.526787 0.000000 0.000000 0.000000 -7.125000 0.000000 0.000000 -9.145551 48.186468 0.728899 0.000000 0.000000 0.000000 -3.904998 1.025786 22.140927 -14.119167 -22.904575 -2.874422 -21.429921 -12.647611 -15.514441 0.000000 0.000000 0.000000 7.125000 0.000000 0.000000 4.175198 13.406739 3.101755
-14.088447 17.124374 9.559139 -9.876545 -1.226204 0.268433 0.000000 0.000000 0.000000 -3.427433 -2.144834 -35.750160 7.265097 15.549264 49.866853 0.420694 -4.771221 -11.551029 0.415061 -4.135383 -11.457967 0.000000 0.000000 0.000000 34.231518 -7.298347 -4.863044 -2.376856 -9.610379 27.724071 -1.723962 5.846446 -23.633232 -0.494572 -4.508695 12.512513 10.891660 0.853755 6.021420 4.545513 1.680694 3.574653 -1.448288 0.959346 0.540413 -8.294205 -0.162645 -13.085617 2.410367 1.450168 38.320608 2.767906 -0.234247 15.668412 0.000000 0.000000 0.000000 -1.774420 3.133153 -11.290386 15.183146 -24.400242 3.301545 19.559069 3.408774 -17.101532 0.000000 0.000000 0.000000 -7.125000 0.000000 0.000000 -8.053405 47.896535 0.581492 0.000000 0.000000 0.000000 -4.377011 1.380275 18.122093 -13.197545 -21.575797 -2.525542 -22.569002 -13.021093 -15.210413 0.000000 0.000000 0.000000 7.125000 0.000000 0.000000 3.390130 13.594338 2.502882
-14.048481 17.118332 10.045016 -9.448999 0.198753 1.161978 0.000000 0.000000 0.000000 -4.544900 -3.858007 -37.951149 4.683837 13.017110 39.435190 0.451930 -3.052133 -12.018674 0.062333 -1.255537 -3.456640 0.000000 0.000000 0.000000 33.996526 -7.340716 -2.984204 -2.018682 -8.904719 25.497856 -1.777656 3.674412 -24.309546 -0.306969 -3.559681 9.841199 10.495864 0.888438 5.513983 4.444411 1.663007 3.302685 -1.330523 0.938917 0.523305 -8.325626 0.037326 -13.263084 2.178212 1.885774 37.932974 2.736579 -0.066159 15.489812 0.000000 0.000000 0.000000 -2.024410 3.341814 -6.732708 12.476197 -20.514229 2.266942 19.721977 8.189747 -17.121680 0.000000 0.000000 0.000000 -7.125000 0.000000 0.000000 -7.903828 47.941113 0.578461 0.000000 0.000000 0.000000 -4.927850 1.730964 16.600492 -13.660948 -22.247728 -2.698561 -22.721173 -12.486073 -12.792746 0.000000 0.000000 0.000000 7.125000 0.000000 0.000000 3.155024 16.163958 2.154426
-13.958769 17.074145 10.621082 -10.072295 1.646647 1.947558 0.000000 0.000000 0.000000 -3.307700 -7.939082 -39.485048 3.586567 11.588832 34.292692 0.816457 -0.403710 -16.945818 0.151307 -2.506550 -6.907937 0.000000 0.000000 0.000000 34.404714 -8.409979 -0.814962 -1.639113 -8.069998 22.926923 -1.900556 3.379136 -25.226009 -0.312284 -3.591684 9.930731 11.031836 0.851121 4.474059 4.573141 1.486879 3.247464 -1.458974 0.879441 1.045781 -7.986297 0.134737 -13.537623 1.821350 2.103882 37.666197 2.557009 0.038483 15.417800 0.000000 0.000000 0.000000 -2.182096 3.386070 -1.725273 10.539488 -17.578869 1.634151 18.853163 12.744246 -17.785836 0.000000 0.000000 0.000000 -7.125000 0.000000 0.000000 -8.912262 48.500637 0.775313 0.000000 0.000000 0.000000 -5.441127 1.450681 15.581976 -13.678755 -22.273512 -2.705166 -22.490310 -11.327668 -12.428579 0.000000 0.000000 0.000000 7.125000 0.000000 0.000000 3.297232 16.577987 2.222906
-13.843899 16.992728 11.224442 -10.601745 2.188587 1.924180 0.000000 0.000000 0.000000 -3.650907 -7.603143 -39.603434 3.513348 11.482885 33.926446 0.823726 0.780431 -17.448337 0.188453 -2.790954 -7.697558 0.000000 0.000000 0.000000 34.650897 -8.136588 2.026168 -1.535064 -7.821933 22.174675 -1.887876 1.926845 -25.461129 -0.146837 -2.468727 6.802898 11.124655 1.069340 5.018655 4.585814 1.883754 3.062812 -1.526033 1.053473 0.591479 -7.766423 0.061683 -13.554206 1.851671 1.945962 37.949441 2.515485 0.002761 15.573470 0.000000 0.000000 0.000000 -2.079721 4.386960 -1.338788 10.493552 -17.507889 1.620276 18.493931 13.105223 -18.475641 0.000000 0.000000 0.000000 -7.125000 0.000000 0.000000 -9.460227 49.154274 0.977081 0.000000 0.000000 0.000000 -5.457510 1.258615 14.227478 -13.540093 -22.073448 -2.652812 -22.695352 -12.013067 -14.210665 0.000000 0.000000 0.000000 7.125000 0.000000 0.000000 3.246131 14.647946 2.323490
